<mxfile host="app.diagrams.net" modified="2022-06-21T11:03:40.073Z" agent="5.0 (Windows NT 10.0; WOW64) AppleWebKit/537.36 (KHTML, like Gecko) Chrome/70.0.3538.25 Safari/537.36 Core/1.70.3883.400 QQBrowser/10.8.4559.400" etag="VyqLw0e88-Lfjf53CshF" version="20.0.1" type="github">
  <diagram name="Page-1" id="13e1069c-82ec-6db2-03f1-153e76fe0fe0">
    <mxGraphModel dx="2522" dy="769" grid="1" gridSize="10" guides="1" tooltips="1" connect="1" arrows="1" fold="1" page="1" pageScale="1" pageWidth="1100" pageHeight="850" background="none" math="0" shadow="0">
      <root>
        <mxCell id="0" />
        <mxCell id="1" parent="0" />
        <mxCell id="7baba1c4bc27f4b0-8" value="NfcService.java" style="shape=umlLifeline;perimeter=lifelinePerimeter;whiteSpace=wrap;html=1;container=1;collapsible=0;recursiveResize=0;outlineConnect=0;rounded=1;shadow=0;comic=0;labelBackgroundColor=none;strokeWidth=1;fontFamily=Verdana;fontSize=12;align=center;" parent="1" vertex="1">
          <mxGeometry x="100" y="80" width="100" height="1220" as="geometry" />
        </mxCell>
        <mxCell id="7baba1c4bc27f4b0-9" value="" style="html=1;points=[];perimeter=orthogonalPerimeter;rounded=0;shadow=0;comic=0;labelBackgroundColor=none;strokeWidth=1;fontFamily=Verdana;fontSize=12;align=center;" parent="7baba1c4bc27f4b0-8" vertex="1">
          <mxGeometry x="45" y="100" width="10" height="950" as="geometry" />
        </mxCell>
        <mxCell id="WPUTdLofhMFZzP7gy3sU-3" value="" style="html=1;points=[];perimeter=orthogonalPerimeter;" vertex="1" parent="7baba1c4bc27f4b0-8">
          <mxGeometry x="50" y="260" width="10" height="40" as="geometry" />
        </mxCell>
        <mxCell id="WPUTdLofhMFZzP7gy3sU-4" value="new EnableDisableTask().execute(TASK_BOOT);&lt;br&gt;&lt;span style=&quot;font-size: 11px;&quot;&gt;Log:&lt;/span&gt;&lt;br&gt;&lt;span style=&quot;font-size: 11px;&quot;&gt;checking on firmware download&lt;/span&gt;&lt;br&gt;&lt;span style=&quot;font-size: 11px;&quot;&gt;NFC is on. Doing normal stuff&lt;/span&gt;&lt;br&gt;&lt;span style=&quot;font-size: 11px;&quot;&gt;Enabling NFC&lt;/span&gt;" style="edgeStyle=orthogonalEdgeStyle;html=1;align=left;spacingLeft=2;endArrow=block;rounded=0;entryX=1;entryY=0;" edge="1" target="WPUTdLofhMFZzP7gy3sU-3" parent="7baba1c4bc27f4b0-8">
          <mxGeometry relative="1" as="geometry">
            <mxPoint x="55" y="240" as="sourcePoint" />
            <Array as="points">
              <mxPoint x="85" y="240" />
            </Array>
          </mxGeometry>
        </mxCell>
        <mxCell id="WPUTdLofhMFZzP7gy3sU-5" value="" style="html=1;points=[];perimeter=orthogonalPerimeter;" vertex="1" parent="7baba1c4bc27f4b0-8">
          <mxGeometry x="50" y="140" width="10" height="40" as="geometry" />
        </mxCell>
        <mxCell id="WPUTdLofhMFZzP7gy3sU-6" value="enforceBeamShareActivityPolicy(mContext, new UserHandle(mUserId));&lt;br&gt;&lt;span style=&quot;font-size: 11px;&quot;&gt;Log:&lt;br&gt;Enforcing a policy change on user:&lt;/span&gt;" style="edgeStyle=orthogonalEdgeStyle;html=1;align=left;spacingLeft=2;endArrow=block;rounded=0;entryX=1;entryY=0;" edge="1" target="WPUTdLofhMFZzP7gy3sU-5" parent="7baba1c4bc27f4b0-8">
          <mxGeometry relative="1" as="geometry">
            <mxPoint x="55" y="120" as="sourcePoint" />
            <Array as="points">
              <mxPoint x="85" y="120" />
            </Array>
          </mxGeometry>
        </mxCell>
        <mxCell id="WPUTdLofhMFZzP7gy3sU-12" value="" style="html=1;points=[];perimeter=orthogonalPerimeter;" vertex="1" parent="7baba1c4bc27f4b0-8">
          <mxGeometry x="50" y="360" width="10" height="230" as="geometry" />
        </mxCell>
        <mxCell id="WPUTdLofhMFZzP7gy3sU-18" value="" style="html=1;points=[];perimeter=orthogonalPerimeter;" vertex="1" parent="7baba1c4bc27f4b0-8">
          <mxGeometry x="55" y="400" width="10" height="40" as="geometry" />
        </mxCell>
        <mxCell id="WPUTdLofhMFZzP7gy3sU-19" value="convertPrefRouteToNfceeIdType(PREF_DEFAULT_AID_ROUTE)&lt;br&gt;Log:&lt;br&gt;&lt;span style=&quot;font-size: 11px;&quot;&gt;convertPrefRouteToNfceeIdType() - route Id:&amp;nbsp;&lt;/span&gt;" style="edgeStyle=orthogonalEdgeStyle;html=1;align=left;spacingLeft=2;endArrow=block;rounded=0;entryX=1;entryY=0;" edge="1" target="WPUTdLofhMFZzP7gy3sU-18" parent="7baba1c4bc27f4b0-8">
          <mxGeometry relative="1" as="geometry">
            <mxPoint x="60" y="380" as="sourcePoint" />
            <Array as="points">
              <mxPoint x="90" y="380" />
            </Array>
          </mxGeometry>
        </mxCell>
        <mxCell id="7baba1c4bc27f4b0-40" value="" style="shape=note;whiteSpace=wrap;html=1;size=14;verticalAlign=top;align=left;spacingTop=-6;rounded=0;shadow=0;comic=0;labelBackgroundColor=none;strokeWidth=1;fontFamily=Verdana;fontSize=12" parent="1" vertex="1">
          <mxGeometry x="100" y="30" width="100" height="35" as="geometry" />
        </mxCell>
        <mxCell id="WPUTdLofhMFZzP7gy3sU-7" value="&lt;span style=&quot;font-family: Verdana; font-size: 12px; background-color: rgb(248, 249, 250);&quot;&gt;NfcService(Application nfcApplication)&lt;/span&gt;" style="html=1;verticalAlign=bottom;endArrow=block;rounded=0;entryX=1;entryY=0.009;entryDx=0;entryDy=0;entryPerimeter=0;" edge="1" parent="1" target="7baba1c4bc27f4b0-9">
          <mxGeometry width="80" relative="1" as="geometry">
            <mxPoint x="-90" y="190" as="sourcePoint" />
            <mxPoint x="70" y="190" as="targetPoint" />
          </mxGeometry>
        </mxCell>
        <mxCell id="WPUTdLofhMFZzP7gy3sU-8" value="getDefaultRoute()" style="html=1;verticalAlign=bottom;endArrow=block;rounded=0;entryX=0.1;entryY=0.009;entryDx=0;entryDy=0;entryPerimeter=0;" edge="1" parent="1" target="WPUTdLofhMFZzP7gy3sU-12">
          <mxGeometry width="80" relative="1" as="geometry">
            <mxPoint x="-90" y="440" as="sourcePoint" />
            <mxPoint x="100" y="410" as="targetPoint" />
          </mxGeometry>
        </mxCell>
      </root>
    </mxGraphModel>
  </diagram>
</mxfile>
